<svg width="960" height="720" viewBox="0 0 960 720" fill="none" xmlns="http://www.w3.org/2000/svg">
  <rect width="960" height="720" rx="40" fill="#F7F7F1"/>
  <rect x="40" y="40" width="880" height="640" rx="32" fill="#9CB080" fill-opacity="0.18"/>
  <circle cx="720" cy="150" r="118" fill="#2B5748" fill-opacity="0.12"/>
  <circle cx="236" cy="556" r="150" fill="#618764" fill-opacity="0.14"/>
  <rect x="120" y="112" width="320" height="44" rx="22" fill="#F7F7F1" fill-opacity="0.92"/>
  <rect x="120" y="188" width="420" height="18" rx="9" fill="#273338" fill-opacity="0.22"/>
  <rect x="120" y="224" width="370" height="18" rx="9" fill="#273338" fill-opacity="0.14"/>
  <rect x="120" y="260" width="290" height="18" rx="9" fill="#273338" fill-opacity="0.12"/>
  <rect x="120" y="338" width="320" height="190" rx="28" fill="#F7F7F1" fill-opacity="0.84" stroke="#273338" stroke-opacity="0.14"/>
  <rect x="156" y="374" width="250" height="18" rx="9" fill="#2B5748" fill-opacity="0.52"/>
  <rect x="156" y="412" width="190" height="12" rx="6" fill="#273338" fill-opacity="0.16"/>
  <rect x="156" y="442" width="210" height="12" rx="6" fill="#273338" fill-opacity="0.16"/>
  <rect x="156" y="472" width="170" height="12" rx="6" fill="#273338" fill-opacity="0.16"/>
  <path d="M560 328C560 314.745 570.745 304 584 304H784C797.255 304 808 314.745 808 328V524C808 537.255 797.255 548 784 548H584C570.745 548 560 537.255 560 524V328Z" fill="#F7F7F1" fill-opacity="0.88" stroke="#273338" stroke-opacity="0.14"/>
  <path d="M595 470L650 424L693 446L748 378L793 402" stroke="#2B5748" stroke-width="16" stroke-linecap="round" stroke-linejoin="round"/>
  <circle cx="595" cy="470" r="10" fill="#618764"/>
  <circle cx="650" cy="424" r="10" fill="#9CB080"/>
  <circle cx="693" cy="446" r="10" fill="#618764"/>
  <circle cx="748" cy="378" r="10" fill="#2B5748"/>
  <circle cx="793" cy="402" r="10" fill="#273338"/>
  <rect x="120" y="576" width="660" height="28" rx="14" fill="#273338" fill-opacity="0.08"/>
  <rect x="120" y="620" width="520" height="16" rx="8" fill="#273338" fill-opacity="0.12"/>
  <rect x="670" y="112" width="128" height="128" rx="32" fill="#273338" fill-opacity="0.06"/>
  <path d="M702 182L731 150L755 168L784 138" stroke="#2B5748" stroke-width="10" stroke-linecap="round" stroke-linejoin="round"/>
</svg>
