<svg width="900" height="620" viewBox="0 0 900 620" fill="none" xmlns="http://www.w3.org/2000/svg">
  <rect width="900" height="620" rx="36" fill="#F7F7F1"/>
  <rect x="40" y="40" width="820" height="540" rx="28" fill="#9CB080" fill-opacity="0.14"/>
  <rect x="96" y="96" width="708" height="78" rx="22" fill="#F7F7F1" fill-opacity="0.9" stroke="#273338" stroke-opacity="0.12"/>
  <rect x="132" y="124" width="220" height="18" rx="9" fill="#2B5748" fill-opacity="0.5"/>
  <rect x="132" y="152" width="160" height="10" rx="5" fill="#273338" fill-opacity="0.18"/>
  <rect x="96" y="214" width="708" height="276" rx="26" fill="#F7F7F1" fill-opacity="0.82" stroke="#273338" stroke-opacity="0.12"/>
  <rect x="132" y="254" width="190" height="160" rx="20" fill="#273338" fill-opacity="0.06"/>
  <rect x="352" y="254" width="190" height="160" rx="20" fill="#618764" fill-opacity="0.16"/>
  <rect x="572" y="254" width="190" height="160" rx="20" fill="#2B5748" fill-opacity="0.12"/>
  <path d="M166 366H288" stroke="#273338" stroke-opacity="0.22" stroke-width="12" stroke-linecap="round"/>
  <path d="M386 334H507" stroke="#2B5748" stroke-width="12" stroke-linecap="round"/>
  <path d="M606 305H726" stroke="#273338" stroke-opacity="0.34" stroke-width="12" stroke-linecap="round"/>
  <path d="M606 356H694" stroke="#618764" stroke-width="12" stroke-linecap="round"/>
  <rect x="132" y="454" width="640" height="18" rx="9" fill="#273338" fill-opacity="0.12"/>
  <rect x="132" y="490" width="440" height="18" rx="9" fill="#273338" fill-opacity="0.08"/>
  <circle cx="680" cy="136" r="22" fill="#618764"/>
  <circle cx="728" cy="136" r="22" fill="#2B5748"/>
  <circle cx="776" cy="136" r="22" fill="#273338"/>
</svg>
